<?xml version="1.0" encoding="utf-8" standalone="no"?>
<!DOCTYPE svg PUBLIC "-//W3C//DTD SVG 1.1//EN"
  "http://www.w3.org/Graphics/SVG/1.1/DTD/svg11.dtd">
<!-- Created with matplotlib (http://matplotlib.org/) -->
<svg height="345pt" version="1.1" viewBox="0 0 460 345" width="460pt" xmlns="http://www.w3.org/2000/svg" xmlns:xlink="http://www.w3.org/1999/xlink">
 <defs>
  <style type="text/css">
*{stroke-linecap:butt;stroke-linejoin:round;}
  </style>
 </defs>
 <g id="figure_1">
  <g id="patch_1">
   <path d="M 0 345.6 
L 460.8 345.6 
L 460.8 0 
L 0 0 
z
" style="fill:#ffffff;"/>
  </g>
  <g id="axes_1">
   <g id="patch_2">
    <path d="M 57.6 307.584 
L 414.72 307.584 
L 414.72 41.472 
L 57.6 41.472 
z
" style="fill:#ffffff;"/>
   </g>
   <g id="matplotlib.axis_1">
    <g id="xtick_1">
     <g id="line2d_1">
      <defs>
       <path d="M 0 0 
L 0 3.5 
" id="m614fef4856" style="stroke:#000000;stroke-width:0.8;"/>
      </defs>
      <g>
       <use style="stroke:#000000;stroke-width:0.8;" x="73.832727" xlink:href="#m614fef4856" y="307.584"/>
      </g>
     </g>
     <g id="text_1">
      <!-- 0.0 -->
      <defs>
       <path d="M 31.78125 66.40625 
Q 24.171875 66.40625 20.328125 58.90625 
Q 16.5 51.421875 16.5 36.375 
Q 16.5 21.390625 20.328125 13.890625 
Q 24.171875 6.390625 31.78125 6.390625 
Q 39.453125 6.390625 43.28125 13.890625 
Q 47.125 21.390625 47.125 36.375 
Q 47.125 51.421875 43.28125 58.90625 
Q 39.453125 66.40625 31.78125 66.40625 
z
M 31.78125 74.21875 
Q 44.046875 74.21875 50.515625 64.515625 
Q 56.984375 54.828125 56.984375 36.375 
Q 56.984375 17.96875 50.515625 8.265625 
Q 44.046875 -1.421875 31.78125 -1.421875 
Q 19.53125 -1.421875 13.0625 8.265625 
Q 6.59375 17.96875 6.59375 36.375 
Q 6.59375 54.828125 13.0625 64.515625 
Q 19.53125 74.21875 31.78125 74.21875 
z
" id="DejaVuSans-30"/>
       <path d="M 10.6875 12.40625 
L 21 12.40625 
L 21 0 
L 10.6875 0 
z
" id="DejaVuSans-2e"/>
      </defs>
      <g transform="translate(65.881165 322.182437)scale(0.1 -0.1)">
       <use xlink:href="#DejaVuSans-30"/>
       <use x="63.623047" xlink:href="#DejaVuSans-2e"/>
       <use x="95.410156" xlink:href="#DejaVuSans-30"/>
      </g>
     </g>
    </g>
    <g id="xtick_2">
     <g id="line2d_2">
      <g>
       <use style="stroke:#000000;stroke-width:0.8;" x="138.763636" xlink:href="#m614fef4856" y="307.584"/>
      </g>
     </g>
     <g id="text_2">
      <!-- 0.2 -->
      <defs>
       <path d="M 19.1875 8.296875 
L 53.609375 8.296875 
L 53.609375 0 
L 7.328125 0 
L 7.328125 8.296875 
Q 12.9375 14.109375 22.625 23.890625 
Q 32.328125 33.6875 34.8125 36.53125 
Q 39.546875 41.84375 41.421875 45.53125 
Q 43.3125 49.21875 43.3125 52.78125 
Q 43.3125 58.59375 39.234375 62.25 
Q 35.15625 65.921875 28.609375 65.921875 
Q 23.96875 65.921875 18.8125 64.3125 
Q 13.671875 62.703125 7.8125 59.421875 
L 7.8125 69.390625 
Q 13.765625 71.78125 18.9375 73 
Q 24.125 74.21875 28.421875 74.21875 
Q 39.75 74.21875 46.484375 68.546875 
Q 53.21875 62.890625 53.21875 53.421875 
Q 53.21875 48.921875 51.53125 44.890625 
Q 49.859375 40.875 45.40625 35.40625 
Q 44.1875 33.984375 37.640625 27.21875 
Q 31.109375 20.453125 19.1875 8.296875 
z
" id="DejaVuSans-32"/>
      </defs>
      <g transform="translate(130.812074 322.182437)scale(0.1 -0.1)">
       <use xlink:href="#DejaVuSans-30"/>
       <use x="63.623047" xlink:href="#DejaVuSans-2e"/>
       <use x="95.410156" xlink:href="#DejaVuSans-32"/>
      </g>
     </g>
    </g>
    <g id="xtick_3">
     <g id="line2d_3">
      <g>
       <use style="stroke:#000000;stroke-width:0.8;" x="203.694545" xlink:href="#m614fef4856" y="307.584"/>
      </g>
     </g>
     <g id="text_3">
      <!-- 0.4 -->
      <defs>
       <path d="M 37.796875 64.3125 
L 12.890625 25.390625 
L 37.796875 25.390625 
z
M 35.203125 72.90625 
L 47.609375 72.90625 
L 47.609375 25.390625 
L 58.015625 25.390625 
L 58.015625 17.1875 
L 47.609375 17.1875 
L 47.609375 0 
L 37.796875 0 
L 37.796875 17.1875 
L 4.890625 17.1875 
L 4.890625 26.703125 
z
" id="DejaVuSans-34"/>
      </defs>
      <g transform="translate(195.742983 322.182437)scale(0.1 -0.1)">
       <use xlink:href="#DejaVuSans-30"/>
       <use x="63.623047" xlink:href="#DejaVuSans-2e"/>
       <use x="95.410156" xlink:href="#DejaVuSans-34"/>
      </g>
     </g>
    </g>
    <g id="xtick_4">
     <g id="line2d_4">
      <g>
       <use style="stroke:#000000;stroke-width:0.8;" x="268.625455" xlink:href="#m614fef4856" y="307.584"/>
      </g>
     </g>
     <g id="text_4">
      <!-- 0.6 -->
      <defs>
       <path d="M 33.015625 40.375 
Q 26.375 40.375 22.484375 35.828125 
Q 18.609375 31.296875 18.609375 23.390625 
Q 18.609375 15.53125 22.484375 10.953125 
Q 26.375 6.390625 33.015625 6.390625 
Q 39.65625 6.390625 43.53125 10.953125 
Q 47.40625 15.53125 47.40625 23.390625 
Q 47.40625 31.296875 43.53125 35.828125 
Q 39.65625 40.375 33.015625 40.375 
z
M 52.59375 71.296875 
L 52.59375 62.3125 
Q 48.875 64.0625 45.09375 64.984375 
Q 41.3125 65.921875 37.59375 65.921875 
Q 27.828125 65.921875 22.671875 59.328125 
Q 17.53125 52.734375 16.796875 39.40625 
Q 19.671875 43.65625 24.015625 45.921875 
Q 28.375 48.1875 33.59375 48.1875 
Q 44.578125 48.1875 50.953125 41.515625 
Q 57.328125 34.859375 57.328125 23.390625 
Q 57.328125 12.15625 50.6875 5.359375 
Q 44.046875 -1.421875 33.015625 -1.421875 
Q 20.359375 -1.421875 13.671875 8.265625 
Q 6.984375 17.96875 6.984375 36.375 
Q 6.984375 53.65625 15.1875 63.9375 
Q 23.390625 74.21875 37.203125 74.21875 
Q 40.921875 74.21875 44.703125 73.484375 
Q 48.484375 72.75 52.59375 71.296875 
z
" id="DejaVuSans-36"/>
      </defs>
      <g transform="translate(260.673892 322.182437)scale(0.1 -0.1)">
       <use xlink:href="#DejaVuSans-30"/>
       <use x="63.623047" xlink:href="#DejaVuSans-2e"/>
       <use x="95.410156" xlink:href="#DejaVuSans-36"/>
      </g>
     </g>
    </g>
    <g id="xtick_5">
     <g id="line2d_5">
      <g>
       <use style="stroke:#000000;stroke-width:0.8;" x="333.556364" xlink:href="#m614fef4856" y="307.584"/>
      </g>
     </g>
     <g id="text_5">
      <!-- 0.8 -->
      <defs>
       <path d="M 31.78125 34.625 
Q 24.75 34.625 20.71875 30.859375 
Q 16.703125 27.09375 16.703125 20.515625 
Q 16.703125 13.921875 20.71875 10.15625 
Q 24.75 6.390625 31.78125 6.390625 
Q 38.8125 6.390625 42.859375 10.171875 
Q 46.921875 13.96875 46.921875 20.515625 
Q 46.921875 27.09375 42.890625 30.859375 
Q 38.875 34.625 31.78125 34.625 
z
M 21.921875 38.8125 
Q 15.578125 40.375 12.03125 44.71875 
Q 8.5 49.078125 8.5 55.328125 
Q 8.5 64.0625 14.71875 69.140625 
Q 20.953125 74.21875 31.78125 74.21875 
Q 42.671875 74.21875 48.875 69.140625 
Q 55.078125 64.0625 55.078125 55.328125 
Q 55.078125 49.078125 51.53125 44.71875 
Q 48 40.375 41.703125 38.8125 
Q 48.828125 37.15625 52.796875 32.3125 
Q 56.78125 27.484375 56.78125 20.515625 
Q 56.78125 9.90625 50.3125 4.234375 
Q 43.84375 -1.421875 31.78125 -1.421875 
Q 19.734375 -1.421875 13.25 4.234375 
Q 6.78125 9.90625 6.78125 20.515625 
Q 6.78125 27.484375 10.78125 32.3125 
Q 14.796875 37.15625 21.921875 38.8125 
z
M 18.3125 54.390625 
Q 18.3125 48.734375 21.84375 45.5625 
Q 25.390625 42.390625 31.78125 42.390625 
Q 38.140625 42.390625 41.71875 45.5625 
Q 45.3125 48.734375 45.3125 54.390625 
Q 45.3125 60.0625 41.71875 63.234375 
Q 38.140625 66.40625 31.78125 66.40625 
Q 25.390625 66.40625 21.84375 63.234375 
Q 18.3125 60.0625 18.3125 54.390625 
z
" id="DejaVuSans-38"/>
      </defs>
      <g transform="translate(325.604801 322.182437)scale(0.1 -0.1)">
       <use xlink:href="#DejaVuSans-30"/>
       <use x="63.623047" xlink:href="#DejaVuSans-2e"/>
       <use x="95.410156" xlink:href="#DejaVuSans-38"/>
      </g>
     </g>
    </g>
    <g id="xtick_6">
     <g id="line2d_6">
      <g>
       <use style="stroke:#000000;stroke-width:0.8;" x="398.487273" xlink:href="#m614fef4856" y="307.584"/>
      </g>
     </g>
     <g id="text_6">
      <!-- 1.0 -->
      <defs>
       <path d="M 12.40625 8.296875 
L 28.515625 8.296875 
L 28.515625 63.921875 
L 10.984375 60.40625 
L 10.984375 69.390625 
L 28.421875 72.90625 
L 38.28125 72.90625 
L 38.28125 8.296875 
L 54.390625 8.296875 
L 54.390625 0 
L 12.40625 0 
z
" id="DejaVuSans-31"/>
      </defs>
      <g transform="translate(390.53571 322.182437)scale(0.1 -0.1)">
       <use xlink:href="#DejaVuSans-31"/>
       <use x="63.623047" xlink:href="#DejaVuSans-2e"/>
       <use x="95.410156" xlink:href="#DejaVuSans-30"/>
      </g>
     </g>
    </g>
   </g>
   <g id="matplotlib.axis_2">
    <g id="ytick_1">
     <g id="line2d_7">
      <defs>
       <path d="M 0 0 
L -3.5 0 
" id="meab6473d03" style="stroke:#000000;stroke-width:0.8;"/>
      </defs>
      <g>
       <use style="stroke:#000000;stroke-width:0.8;" x="57.6" xlink:href="#meab6473d03" y="299.17887"/>
      </g>
     </g>
     <g id="text_7">
      <!-- 0.0 -->
      <g transform="translate(34.696875 302.978089)scale(0.1 -0.1)">
       <use xlink:href="#DejaVuSans-30"/>
       <use x="63.623047" xlink:href="#DejaVuSans-2e"/>
       <use x="95.410156" xlink:href="#DejaVuSans-30"/>
      </g>
     </g>
    </g>
    <g id="ytick_2">
     <g id="line2d_8">
      <g>
       <use style="stroke:#000000;stroke-width:0.8;" x="57.6" xlink:href="#meab6473d03" y="249.553394"/>
      </g>
     </g>
     <g id="text_8">
      <!-- 0.2 -->
      <g transform="translate(34.696875 253.352613)scale(0.1 -0.1)">
       <use xlink:href="#DejaVuSans-30"/>
       <use x="63.623047" xlink:href="#DejaVuSans-2e"/>
       <use x="95.410156" xlink:href="#DejaVuSans-32"/>
      </g>
     </g>
    </g>
    <g id="ytick_3">
     <g id="line2d_9">
      <g>
       <use style="stroke:#000000;stroke-width:0.8;" x="57.6" xlink:href="#meab6473d03" y="199.927919"/>
      </g>
     </g>
     <g id="text_9">
      <!-- 0.4 -->
      <g transform="translate(34.696875 203.727138)scale(0.1 -0.1)">
       <use xlink:href="#DejaVuSans-30"/>
       <use x="63.623047" xlink:href="#DejaVuSans-2e"/>
       <use x="95.410156" xlink:href="#DejaVuSans-34"/>
      </g>
     </g>
    </g>
    <g id="ytick_4">
     <g id="line2d_10">
      <g>
       <use style="stroke:#000000;stroke-width:0.8;" x="57.6" xlink:href="#meab6473d03" y="150.302443"/>
      </g>
     </g>
     <g id="text_10">
      <!-- 0.6 -->
      <g transform="translate(34.696875 154.101662)scale(0.1 -0.1)">
       <use xlink:href="#DejaVuSans-30"/>
       <use x="63.623047" xlink:href="#DejaVuSans-2e"/>
       <use x="95.410156" xlink:href="#DejaVuSans-36"/>
      </g>
     </g>
    </g>
    <g id="ytick_5">
     <g id="line2d_11">
      <g>
       <use style="stroke:#000000;stroke-width:0.8;" x="57.6" xlink:href="#meab6473d03" y="100.676968"/>
      </g>
     </g>
     <g id="text_11">
      <!-- 0.8 -->
      <g transform="translate(34.696875 104.476186)scale(0.1 -0.1)">
       <use xlink:href="#DejaVuSans-30"/>
       <use x="63.623047" xlink:href="#DejaVuSans-2e"/>
       <use x="95.410156" xlink:href="#DejaVuSans-38"/>
      </g>
     </g>
    </g>
    <g id="ytick_6">
     <g id="line2d_12">
      <g>
       <use style="stroke:#000000;stroke-width:0.8;" x="57.6" xlink:href="#meab6473d03" y="51.051492"/>
      </g>
     </g>
     <g id="text_12">
      <!-- 1.0 -->
      <g transform="translate(34.696875 54.850711)scale(0.1 -0.1)">
       <use xlink:href="#DejaVuSans-31"/>
       <use x="63.623047" xlink:href="#DejaVuSans-2e"/>
       <use x="95.410156" xlink:href="#DejaVuSans-30"/>
      </g>
     </g>
    </g>
   </g>
   <g id="line2d_13">
    <path clip-path="url(#pc4d0f06205)" d="M 73.832727 286.596355 
L 74.92584 286.764114 
L 76.018953 286.093054 
L 77.112066 285.086451 
L 78.205179 278.711289 
L 79.298292 276.194781 
L 80.391405 269.316244 
L 81.484518 258.411542 
L 82.577631 245.661268 
L 83.670744 224.522553 
L 84.763857 206.739263 
L 85.85697 186.607201 
L 88.043196 142.65218 
L 89.136309 124.868891 
L 90.229421 119.332673 
L 91.322534 104.40136 
L 92.415647 76.719773 
L 93.50876 67.324926 
L 94.601873 65.143887 
L 95.694986 54.574653 
L 96.788099 53.568 
L 97.881212 61.78846 
L 98.974325 79.571997 
L 100.067438 85.779152 
L 101.160551 87.456989 
L 102.253664 103.394707 
L 105.533003 130.405357 
L 106.626116 142.484446 
L 107.719229 161.609856 
L 108.812342 163.95863 
L 109.905455 152.047275 
L 110.998567 154.396049 
L 112.09168 159.932267 
L 113.184793 161.945572 
L 114.277906 159.932267 
L 115.371019 168.991645 
L 116.464132 184.761877 
L 117.557245 189.962627 
L 118.650358 202.712901 
L 119.743471 213.953319 
L 120.836584 215.463174 
L 121.929697 220.328456 
L 124.115923 236.433907 
L 125.209036 238.614947 
L 126.302149 241.131455 
L 127.395262 250.52655 
L 128.488375 256.398236 
L 129.581488 259.250212 
L 130.674601 257.069421 
L 131.767713 260.92805 
L 132.860826 265.289881 
L 135.047052 269.819694 
L 137.233278 280.892279 
L 138.326391 280.892279 
L 139.419504 278.54353 
L 140.512617 279.550133 
L 141.60573 277.704686 
L 142.698843 275.188178 
L 143.791956 274.684901 
L 144.885069 269.819694 
L 147.071295 251.532955 
L 148.164408 247.674326 
L 149.257521 242.64131 
L 150.350634 234.588584 
L 151.443747 229.555568 
L 152.53686 225.361471 
L 153.629972 220.49619 
L 154.723085 214.288787 
L 155.816198 200.867329 
L 156.909311 196.337764 
L 158.002424 193.150071 
L 159.095537 192.143419 
L 160.18865 190.298095 
L 161.281763 182.077387 
L 164.561102 115.809512 
L 167.840441 77.89416 
L 168.933554 90.141231 
L 170.026667 93.496658 
L 171.11978 88.79911 
L 172.212893 89.470047 
L 173.306006 96.1809 
L 174.399118 112.622068 
L 175.492231 122.352383 
L 176.585344 133.257333 
L 177.678457 151.543825 
L 178.77157 160.435469 
L 179.864683 167.984993 
L 180.957796 174.695846 
L 182.050909 176.205701 
L 183.144022 184.929611 
L 184.237135 186.607201 
L 185.330248 187.110403 
L 186.423361 186.607201 
L 187.516474 187.781587 
L 188.609587 191.304748 
L 189.7027 191.640216 
L 190.795813 194.659926 
L 191.888926 197.176434 
L 194.075152 200.364127 
L 195.168264 205.564877 
L 196.261377 206.571529 
L 197.35449 213.785585 
L 198.447603 219.992739 
L 199.540716 224.522553 
L 200.633829 223.683634 
L 201.726942 225.361471 
L 203.913168 238.950415 
L 205.006281 244.319147 
L 206.099394 248.680979 
L 207.192507 256.230502 
L 208.28562 262.270171 
L 209.378733 264.45121 
L 210.471846 265.625349 
L 211.564959 268.309839 
L 213.751185 277.536927 
L 214.844298 281.731099 
L 215.93741 286.596355 
L 217.030523 290.119442 
L 218.123636 292.803733 
L 219.216749 293.810336 
L 220.309862 293.139251 
L 221.402975 292.635949 
L 222.496088 292.300432 
L 223.589201 289.951683 
L 224.682314 288.777321 
L 225.775427 283.744305 
L 226.86854 279.717892 
L 229.054766 263.109089 
L 230.147879 255.559566 
L 231.240992 244.486881 
L 232.334105 238.782681 
L 233.427218 229.2201 
L 234.520331 217.811948 
L 235.613444 209.255771 
L 239.985895 160.603451 
L 242.172121 142.819914 
L 243.265234 141.813509 
L 244.358347 141.645775 
L 245.45146 138.961285 
L 246.544573 134.767188 
L 247.637686 138.961285 
L 248.730799 139.464736 
L 249.823912 141.981244 
L 250.917025 140.639123 
L 252.010138 147.181993 
L 253.103251 155.234719 
L 254.196364 159.764533 
L 255.289477 168.656177 
L 256.38259 170.501501 
L 257.475702 182.580838 
L 259.661928 187.278385 
L 262.941267 202.712901 
L 264.03438 200.867329 
L 265.127493 206.403795 
L 266.220606 216.13411 
L 267.313719 223.5159 
L 268.406832 225.361471 
L 269.499945 224.690287 
L 271.686171 226.703592 
L 272.779284 222.006045 
L 273.872397 220.999392 
L 274.96551 219.489537 
L 276.058623 222.173779 
L 277.151736 227.03906 
L 278.244848 229.891037 
L 279.337961 236.769624 
L 280.431074 240.124802 
L 281.524187 247.003389 
L 282.6173 250.52655 
L 283.710413 253.54626 
L 285.896639 263.94776 
L 286.989752 267.806389 
L 288.082865 270.994081 
L 289.175978 278.879073 
L 290.269091 284.583149 
L 291.362204 287.938476 
L 292.455317 290.119442 
L 293.54843 290.287225 
L 294.641543 288.609562 
L 295.734656 283.744305 
L 296.827769 278.040229 
L 299.013994 262.941107 
L 300.107107 252.371873 
L 302.293333 226.703592 
L 303.386446 219.657271 
L 304.479559 203.048369 
L 305.572672 190.298095 
L 306.665785 182.748572 
L 307.758898 177.547822 
L 308.852011 168.991645 
L 309.945124 142.148978 
L 311.038237 121.849181 
L 314.317576 67.828129 
L 315.410689 63.801766 
L 316.503802 64.976152 
L 317.596915 72.022474 
L 318.690028 82.256239 
L 319.78314 97.187304 
L 320.876253 109.769844 
L 321.969366 114.131923 
L 323.062479 126.378994 
L 324.155592 134.599454 
L 325.248705 134.263986 
L 326.341818 129.734172 
L 327.434931 128.224317 
L 328.528044 128.72752 
L 329.621157 130.069641 
L 330.71427 144.665485 
L 331.807383 156.409106 
L 333.993609 185.600548 
L 335.086722 194.659926 
L 336.179835 208.081384 
L 337.272948 211.940013 
L 338.366061 212.778932 
L 339.459174 216.973029 
L 340.552287 222.844963 
L 341.645399 233.749665 
L 342.738512 238.614947 
L 343.831625 244.486881 
L 344.924738 256.56597 
L 346.017851 264.786678 
L 347.110964 269.316244 
L 348.204077 271.161815 
L 349.29719 273.846057 
L 350.390303 278.207988 
L 351.483416 279.885676 
L 352.576529 279.046832 
L 353.669642 280.221194 
L 354.762755 279.382374 
L 355.855868 281.395581 
L 356.948981 277.201384 
L 358.042094 277.87247 
L 359.135207 277.536927 
L 360.22832 277.87247 
L 361.321433 281.395581 
L 362.414545 283.241003 
L 363.507658 287.099657 
L 364.600771 288.94508 
L 365.693884 291.293828 
L 366.786997 293.307035 
L 367.88011 294.145854 
L 368.973223 295.320241 
L 370.066336 295.488 
L 372.252562 292.132648 
L 373.345675 289.61614 
L 376.625014 272.67167 
L 377.718127 265.961065 
L 378.81124 252.875076 
L 379.904353 246.667921 
L 380.997466 241.466923 
L 382.090579 232.910995 
L 383.183691 226.032408 
L 384.276804 215.798642 
L 385.369917 215.463174 
L 386.46303 209.255771 
L 387.556143 205.732611 
L 388.649256 199.357474 
L 389.742369 194.492192 
L 390.835482 201.203045 
L 391.928595 202.20945 
L 393.021708 198.854272 
L 394.114821 198.518555 
L 395.207934 204.39049 
L 396.301047 207.745916 
L 397.39416 200.364127 
L 398.487273 198.854272 
L 398.487273 198.854272 
" style="fill:none;stroke:#1f77b4;stroke-linecap:square;stroke-width:1.5;"/>
   </g>
   <g id="line2d_14">
    <path clip-path="url(#pc4d0f06205)" d="M 73.832727 279.15334 
L 76.018953 279.99734 
L 77.112066 279.834325 
L 78.205179 280.077335 
L 79.298292 279.205152 
L 80.391405 277.217664 
L 81.484518 276.904875 
L 82.577631 272.623073 
L 83.670744 267.475095 
L 84.763857 254.895881 
L 86.950083 204.390264 
L 88.043196 172.379951 
L 89.136309 147.422949 
L 90.229421 129.976269 
L 91.322534 123.814509 
L 92.415647 123.273315 
L 93.50876 116.512363 
L 94.601873 112.548448 
L 95.694986 112.349994 
L 96.788099 111.732047 
L 97.881212 110.943928 
L 98.974325 110.618515 
L 100.067438 111.391749 
L 101.160551 113.557044 
L 102.253664 113.284362 
L 103.346777 114.238592 
L 104.43989 117.141655 
L 105.533003 119.236745 
L 106.626116 123.25892 
L 107.719229 124.742176 
L 108.812342 134.389314 
L 109.905455 151.617107 
L 112.09168 138.145407 
L 113.184793 141.130002 
L 114.277906 146.394584 
L 115.371019 145.553409 
L 116.464132 143.254161 
L 118.650358 173.155196 
L 119.743471 180.974459 
L 120.836584 204.147347 
L 121.929697 217.312454 
L 123.02281 218.418277 
L 124.115923 227.295034 
L 125.209036 240.254096 
L 126.302149 247.546557 
L 127.395262 248.72408 
L 128.488375 253.330921 
L 129.581488 261.930589 
L 130.674601 266.870371 
L 131.767713 266.322273 
L 132.860826 266.2088 
L 133.953939 268.957226 
L 135.047052 271.357748 
L 137.233278 273.350894 
L 138.326391 276.557809 
L 139.419504 278.289916 
L 140.512617 277.871508 
L 141.60573 277.300702 
L 142.698843 277.672844 
L 143.791956 276.755735 
L 144.885069 276.110822 
L 145.978182 275.946057 
L 147.071295 273.367764 
L 149.257521 261.511635 
L 150.350634 258.62126 
L 151.443747 253.199353 
L 152.53686 243.793067 
L 153.629972 238.337547 
L 154.723085 233.729213 
L 155.816198 227.692108 
L 156.909311 212.724248 
L 158.002424 195.788625 
L 159.095537 188.904546 
L 160.18865 183.89192 
L 161.281763 184.792485 
L 162.374876 184.321768 
L 163.467989 169.284297 
L 164.561102 142.194472 
L 165.654215 127.802678 
L 166.747328 120.396261 
L 167.840441 117.60804 
L 168.933554 113.968651 
L 170.026667 112.829597 
L 171.11978 115.282707 
L 172.212893 114.99834 
L 173.306006 114.245614 
L 174.399118 113.986025 
L 175.492231 115.758234 
L 176.585344 119.402615 
L 177.678457 121.941397 
L 178.77157 128.844937 
L 180.957796 146.81388 
L 182.050909 154.653008 
L 183.144022 159.530102 
L 184.237135 163.268657 
L 185.330248 174.943471 
L 186.423361 176.326866 
L 187.516474 175.524887 
L 188.609587 175.302586 
L 189.7027 178.26368 
L 190.795813 182.998625 
L 191.888926 181.476269 
L 192.982039 189.433334 
L 194.075152 190.962052 
L 195.168264 192.279643 
L 196.261377 199.145425 
L 197.35449 201.534363 
L 198.447603 206.828287 
L 199.540716 217.934815 
L 200.633829 227.866686 
L 201.726942 232.399789 
L 202.820055 229.229666 
L 203.913168 234.443689 
L 205.006281 243.289473 
L 206.099394 250.764491 
L 208.28562 260.057027 
L 209.378733 266.104172 
L 210.471846 269.888479 
L 211.564959 270.631826 
L 212.658072 271.10425 
L 213.751185 272.956583 
L 215.93741 277.010231 
L 218.123636 279.997163 
L 219.216749 280.974387 
L 220.309862 281.589974 
L 221.402975 281.783675 
L 222.496088 281.538302 
L 223.589201 281.617429 
L 225.775427 280.984728 
L 226.86854 280.409451 
L 227.961653 279.142565 
L 229.054766 277.574328 
L 231.240992 269.954341 
L 232.334105 263.503176 
L 233.427218 255.743525 
L 234.520331 249.245492 
L 235.613444 236.999908 
L 236.706556 221.550138 
L 237.799669 208.433436 
L 239.985895 172.269332 
L 241.079008 156.680468 
L 242.172121 144.955295 
L 243.265234 136.859574 
L 244.358347 132.289358 
L 245.45146 131.754446 
L 246.544573 132.345467 
L 247.637686 129.057657 
L 248.730799 128.04731 
L 249.823912 130.491947 
L 250.917025 130.487734 
L 252.010138 131.643397 
L 253.103251 130.752312 
L 254.196364 136.067683 
L 255.289477 140.587816 
L 256.38259 146.945316 
L 258.568815 157.702317 
L 259.661928 171.565723 
L 260.755041 172.794353 
L 261.848154 177.46356 
L 262.941267 183.450069 
L 264.03438 194.88923 
L 265.127493 197.606552 
L 266.220606 195.043944 
L 267.313719 207.83183 
L 268.406832 222.952279 
L 269.499945 231.993842 
L 270.593058 232.598458 
L 271.686171 232.249998 
L 272.779284 236.053409 
L 273.872397 233.726143 
L 274.96551 228.601408 
L 276.058623 225.691876 
L 277.151736 224.930392 
L 278.244848 230.528927 
L 279.337961 234.54078 
L 281.524187 247.247666 
L 282.6173 252.402355 
L 283.710413 258.68602 
L 284.803526 260.902547 
L 285.896639 263.734559 
L 288.082865 270.851484 
L 289.175978 272.29159 
L 290.269091 274.20055 
L 291.362204 277.761353 
L 292.455317 279.349378 
L 293.54843 280.394538 
L 294.641543 280.88648 
L 295.734656 281.142877 
L 296.827769 280.349796 
L 297.920882 279.132913 
L 299.013994 276.846728 
L 300.107107 273.76606 
L 301.20022 269.828803 
L 302.293333 261.430578 
L 304.479559 234.745599 
L 305.572672 223.943436 
L 306.665785 197.106796 
L 307.758898 177.506179 
L 308.852011 171.165496 
L 309.945124 166.668404 
L 311.038237 152.508647 
L 312.13135 129.903461 
L 313.224463 122.587387 
L 314.317576 117.636991 
L 315.410689 113.510398 
L 316.503802 111.914474 
L 317.596915 111.59721 
L 318.690028 111.521176 
L 319.78314 112.104956 
L 320.876253 113.318211 
L 323.062479 118.536226 
L 324.155592 119.571362 
L 325.248705 125.762998 
L 326.341818 127.89201 
L 327.434931 127.684863 
L 328.528044 125.322452 
L 329.621157 124.943243 
L 330.71427 124.139595 
L 331.807383 125.714355 
L 333.993609 142.455411 
L 335.086722 159.517197 
L 336.179835 174.058599 
L 338.366061 210.075464 
L 339.459174 213.166558 
L 340.552287 215.237665 
L 341.645399 221.106814 
L 342.738512 231.799768 
L 343.831625 245.256974 
L 344.924738 249.275876 
L 346.017851 256.624758 
L 347.110964 266.839732 
L 348.204077 271.276669 
L 349.29719 273.446489 
L 350.390303 273.935259 
L 352.576529 277.349548 
L 353.669642 277.607911 
L 355.855868 277.500374 
L 356.948981 278.07166 
L 358.042094 277.923097 
L 359.135207 276.761444 
L 360.22832 276.871575 
L 361.321433 276.605743 
L 362.414545 277.265917 
L 363.507658 278.061171 
L 365.693884 280.031853 
L 366.786997 280.56449 
L 367.88011 281.246873 
L 370.066336 281.956364 
L 371.159449 282.117437 
L 372.252562 282.15531 
L 374.438788 281.409219 
L 375.531901 280.769729 
L 378.81124 275.261573 
L 379.904353 270.215174 
L 380.997466 262.277299 
L 382.090579 257.820368 
L 383.183691 251.673863 
L 384.276804 243.35559 
L 385.369917 229.808748 
L 386.46303 221.573231 
L 387.556143 217.490897 
L 388.649256 209.400837 
L 389.742369 204.735668 
L 390.835482 189.160945 
L 391.928595 189.28787 
L 393.021708 199.028341 
L 394.114821 197.819893 
L 395.207934 191.123962 
L 396.301047 193.984107 
L 397.39416 207.433939 
L 398.487273 203.549715 
L 398.487273 203.549715 
" style="fill:none;stroke:#ff7f0e;stroke-linecap:square;stroke-width:1.5;"/>
   </g>
   <g id="patch_3">
    <path d="M 57.6 307.584 
L 57.6 41.472 
" style="fill:none;stroke:#000000;stroke-linecap:square;stroke-linejoin:miter;stroke-width:0.8;"/>
   </g>
   <g id="patch_4">
    <path d="M 414.72 307.584 
L 414.72 41.472 
" style="fill:none;stroke:#000000;stroke-linecap:square;stroke-linejoin:miter;stroke-width:0.8;"/>
   </g>
   <g id="patch_5">
    <path d="M 57.6 307.584 
L 414.72 307.584 
" style="fill:none;stroke:#000000;stroke-linecap:square;stroke-linejoin:miter;stroke-width:0.8;"/>
   </g>
   <g id="patch_6">
    <path d="M 57.6 41.472 
L 414.72 41.472 
" style="fill:none;stroke:#000000;stroke-linecap:square;stroke-linejoin:miter;stroke-width:0.8;"/>
   </g>
   <g id="text_13">
    <!-- Plot of Train Data vs MCMC Uncertainty  -->
    <defs>
     <path d="M 19.671875 64.796875 
L 19.671875 37.40625 
L 32.078125 37.40625 
Q 38.96875 37.40625 42.71875 40.96875 
Q 46.484375 44.53125 46.484375 51.125 
Q 46.484375 57.671875 42.71875 61.234375 
Q 38.96875 64.796875 32.078125 64.796875 
z
M 9.8125 72.90625 
L 32.078125 72.90625 
Q 44.34375 72.90625 50.609375 67.359375 
Q 56.890625 61.8125 56.890625 51.125 
Q 56.890625 40.328125 50.609375 34.8125 
Q 44.34375 29.296875 32.078125 29.296875 
L 19.671875 29.296875 
L 19.671875 0 
L 9.8125 0 
z
" id="DejaVuSans-50"/>
     <path d="M 9.421875 75.984375 
L 18.40625 75.984375 
L 18.40625 0 
L 9.421875 0 
z
" id="DejaVuSans-6c"/>
     <path d="M 30.609375 48.390625 
Q 23.390625 48.390625 19.1875 42.75 
Q 14.984375 37.109375 14.984375 27.296875 
Q 14.984375 17.484375 19.15625 11.84375 
Q 23.34375 6.203125 30.609375 6.203125 
Q 37.796875 6.203125 41.984375 11.859375 
Q 46.1875 17.53125 46.1875 27.296875 
Q 46.1875 37.015625 41.984375 42.703125 
Q 37.796875 48.390625 30.609375 48.390625 
z
M 30.609375 56 
Q 42.328125 56 49.015625 48.375 
Q 55.71875 40.765625 55.71875 27.296875 
Q 55.71875 13.875 49.015625 6.21875 
Q 42.328125 -1.421875 30.609375 -1.421875 
Q 18.84375 -1.421875 12.171875 6.21875 
Q 5.515625 13.875 5.515625 27.296875 
Q 5.515625 40.765625 12.171875 48.375 
Q 18.84375 56 30.609375 56 
z
" id="DejaVuSans-6f"/>
     <path d="M 18.3125 70.21875 
L 18.3125 54.6875 
L 36.8125 54.6875 
L 36.8125 47.703125 
L 18.3125 47.703125 
L 18.3125 18.015625 
Q 18.3125 11.328125 20.140625 9.421875 
Q 21.96875 7.515625 27.59375 7.515625 
L 36.8125 7.515625 
L 36.8125 0 
L 27.59375 0 
Q 17.1875 0 13.234375 3.875 
Q 9.28125 7.765625 9.28125 18.015625 
L 9.28125 47.703125 
L 2.6875 47.703125 
L 2.6875 54.6875 
L 9.28125 54.6875 
L 9.28125 70.21875 
z
" id="DejaVuSans-74"/>
     <path id="DejaVuSans-20"/>
     <path d="M 37.109375 75.984375 
L 37.109375 68.5 
L 28.515625 68.5 
Q 23.6875 68.5 21.796875 66.546875 
Q 19.921875 64.59375 19.921875 59.515625 
L 19.921875 54.6875 
L 34.71875 54.6875 
L 34.71875 47.703125 
L 19.921875 47.703125 
L 19.921875 0 
L 10.890625 0 
L 10.890625 47.703125 
L 2.296875 47.703125 
L 2.296875 54.6875 
L 10.890625 54.6875 
L 10.890625 58.5 
Q 10.890625 67.625 15.140625 71.796875 
Q 19.390625 75.984375 28.609375 75.984375 
z
" id="DejaVuSans-66"/>
     <path d="M -0.296875 72.90625 
L 61.375 72.90625 
L 61.375 64.59375 
L 35.5 64.59375 
L 35.5 0 
L 25.59375 0 
L 25.59375 64.59375 
L -0.296875 64.59375 
z
" id="DejaVuSans-54"/>
     <path d="M 41.109375 46.296875 
Q 39.59375 47.171875 37.8125 47.578125 
Q 36.03125 48 33.890625 48 
Q 26.265625 48 22.1875 43.046875 
Q 18.109375 38.09375 18.109375 28.8125 
L 18.109375 0 
L 9.078125 0 
L 9.078125 54.6875 
L 18.109375 54.6875 
L 18.109375 46.1875 
Q 20.953125 51.171875 25.484375 53.578125 
Q 30.03125 56 36.53125 56 
Q 37.453125 56 38.578125 55.875 
Q 39.703125 55.765625 41.0625 55.515625 
z
" id="DejaVuSans-72"/>
     <path d="M 34.28125 27.484375 
Q 23.390625 27.484375 19.1875 25 
Q 14.984375 22.515625 14.984375 16.5 
Q 14.984375 11.71875 18.140625 8.90625 
Q 21.296875 6.109375 26.703125 6.109375 
Q 34.1875 6.109375 38.703125 11.40625 
Q 43.21875 16.703125 43.21875 25.484375 
L 43.21875 27.484375 
z
M 52.203125 31.203125 
L 52.203125 0 
L 43.21875 0 
L 43.21875 8.296875 
Q 40.140625 3.328125 35.546875 0.953125 
Q 30.953125 -1.421875 24.3125 -1.421875 
Q 15.921875 -1.421875 10.953125 3.296875 
Q 6 8.015625 6 15.921875 
Q 6 25.140625 12.171875 29.828125 
Q 18.359375 34.515625 30.609375 34.515625 
L 43.21875 34.515625 
L 43.21875 35.40625 
Q 43.21875 41.609375 39.140625 45 
Q 35.0625 48.390625 27.6875 48.390625 
Q 23 48.390625 18.546875 47.265625 
Q 14.109375 46.140625 10.015625 43.890625 
L 10.015625 52.203125 
Q 14.9375 54.109375 19.578125 55.046875 
Q 24.21875 56 28.609375 56 
Q 40.484375 56 46.34375 49.84375 
Q 52.203125 43.703125 52.203125 31.203125 
z
" id="DejaVuSans-61"/>
     <path d="M 9.421875 54.6875 
L 18.40625 54.6875 
L 18.40625 0 
L 9.421875 0 
z
M 9.421875 75.984375 
L 18.40625 75.984375 
L 18.40625 64.59375 
L 9.421875 64.59375 
z
" id="DejaVuSans-69"/>
     <path d="M 54.890625 33.015625 
L 54.890625 0 
L 45.90625 0 
L 45.90625 32.71875 
Q 45.90625 40.484375 42.875 44.328125 
Q 39.84375 48.1875 33.796875 48.1875 
Q 26.515625 48.1875 22.3125 43.546875 
Q 18.109375 38.921875 18.109375 30.90625 
L 18.109375 0 
L 9.078125 0 
L 9.078125 54.6875 
L 18.109375 54.6875 
L 18.109375 46.1875 
Q 21.34375 51.125 25.703125 53.5625 
Q 30.078125 56 35.796875 56 
Q 45.21875 56 50.046875 50.171875 
Q 54.890625 44.34375 54.890625 33.015625 
z
" id="DejaVuSans-6e"/>
     <path d="M 19.671875 64.796875 
L 19.671875 8.109375 
L 31.59375 8.109375 
Q 46.6875 8.109375 53.6875 14.9375 
Q 60.6875 21.78125 60.6875 36.53125 
Q 60.6875 51.171875 53.6875 57.984375 
Q 46.6875 64.796875 31.59375 64.796875 
z
M 9.8125 72.90625 
L 30.078125 72.90625 
Q 51.265625 72.90625 61.171875 64.09375 
Q 71.09375 55.28125 71.09375 36.53125 
Q 71.09375 17.671875 61.125 8.828125 
Q 51.171875 0 30.078125 0 
L 9.8125 0 
z
" id="DejaVuSans-44"/>
     <path d="M 2.984375 54.6875 
L 12.5 54.6875 
L 29.59375 8.796875 
L 46.6875 54.6875 
L 56.203125 54.6875 
L 35.6875 0 
L 23.484375 0 
z
" id="DejaVuSans-76"/>
     <path d="M 44.28125 53.078125 
L 44.28125 44.578125 
Q 40.484375 46.53125 36.375 47.5 
Q 32.28125 48.484375 27.875 48.484375 
Q 21.1875 48.484375 17.84375 46.4375 
Q 14.5 44.390625 14.5 40.28125 
Q 14.5 37.15625 16.890625 35.375 
Q 19.28125 33.59375 26.515625 31.984375 
L 29.59375 31.296875 
Q 39.15625 29.25 43.1875 25.515625 
Q 47.21875 21.78125 47.21875 15.09375 
Q 47.21875 7.46875 41.1875 3.015625 
Q 35.15625 -1.421875 24.609375 -1.421875 
Q 20.21875 -1.421875 15.453125 -0.5625 
Q 10.6875 0.296875 5.421875 2 
L 5.421875 11.28125 
Q 10.40625 8.6875 15.234375 7.390625 
Q 20.0625 6.109375 24.8125 6.109375 
Q 31.15625 6.109375 34.5625 8.28125 
Q 37.984375 10.453125 37.984375 14.40625 
Q 37.984375 18.0625 35.515625 20.015625 
Q 33.0625 21.96875 24.703125 23.78125 
L 21.578125 24.515625 
Q 13.234375 26.265625 9.515625 29.90625 
Q 5.8125 33.546875 5.8125 39.890625 
Q 5.8125 47.609375 11.28125 51.796875 
Q 16.75 56 26.8125 56 
Q 31.78125 56 36.171875 55.265625 
Q 40.578125 54.546875 44.28125 53.078125 
z
" id="DejaVuSans-73"/>
     <path d="M 9.8125 72.90625 
L 24.515625 72.90625 
L 43.109375 23.296875 
L 61.8125 72.90625 
L 76.515625 72.90625 
L 76.515625 0 
L 66.890625 0 
L 66.890625 64.015625 
L 48.09375 14.015625 
L 38.1875 14.015625 
L 19.390625 64.015625 
L 19.390625 0 
L 9.8125 0 
z
" id="DejaVuSans-4d"/>
     <path d="M 64.40625 67.28125 
L 64.40625 56.890625 
Q 59.421875 61.53125 53.78125 63.8125 
Q 48.140625 66.109375 41.796875 66.109375 
Q 29.296875 66.109375 22.65625 58.46875 
Q 16.015625 50.828125 16.015625 36.375 
Q 16.015625 21.96875 22.65625 14.328125 
Q 29.296875 6.6875 41.796875 6.6875 
Q 48.140625 6.6875 53.78125 8.984375 
Q 59.421875 11.28125 64.40625 15.921875 
L 64.40625 5.609375 
Q 59.234375 2.09375 53.4375 0.328125 
Q 47.65625 -1.421875 41.21875 -1.421875 
Q 24.65625 -1.421875 15.125 8.703125 
Q 5.609375 18.84375 5.609375 36.375 
Q 5.609375 53.953125 15.125 64.078125 
Q 24.65625 74.21875 41.21875 74.21875 
Q 47.75 74.21875 53.53125 72.484375 
Q 59.328125 70.75 64.40625 67.28125 
z
" id="DejaVuSans-43"/>
     <path d="M 8.6875 72.90625 
L 18.609375 72.90625 
L 18.609375 28.609375 
Q 18.609375 16.890625 22.84375 11.734375 
Q 27.09375 6.59375 36.625 6.59375 
Q 46.09375 6.59375 50.34375 11.734375 
Q 54.59375 16.890625 54.59375 28.609375 
L 54.59375 72.90625 
L 64.5 72.90625 
L 64.5 27.390625 
Q 64.5 13.140625 57.4375 5.859375 
Q 50.390625 -1.421875 36.625 -1.421875 
Q 22.796875 -1.421875 15.734375 5.859375 
Q 8.6875 13.140625 8.6875 27.390625 
z
" id="DejaVuSans-55"/>
     <path d="M 48.78125 52.59375 
L 48.78125 44.1875 
Q 44.96875 46.296875 41.140625 47.34375 
Q 37.3125 48.390625 33.40625 48.390625 
Q 24.65625 48.390625 19.8125 42.84375 
Q 14.984375 37.3125 14.984375 27.296875 
Q 14.984375 17.28125 19.8125 11.734375 
Q 24.65625 6.203125 33.40625 6.203125 
Q 37.3125 6.203125 41.140625 7.25 
Q 44.96875 8.296875 48.78125 10.40625 
L 48.78125 2.09375 
Q 45.015625 0.34375 40.984375 -0.53125 
Q 36.96875 -1.421875 32.421875 -1.421875 
Q 20.0625 -1.421875 12.78125 6.34375 
Q 5.515625 14.109375 5.515625 27.296875 
Q 5.515625 40.671875 12.859375 48.328125 
Q 20.21875 56 33.015625 56 
Q 37.15625 56 41.109375 55.140625 
Q 45.0625 54.296875 48.78125 52.59375 
z
" id="DejaVuSans-63"/>
     <path d="M 56.203125 29.59375 
L 56.203125 25.203125 
L 14.890625 25.203125 
Q 15.484375 15.921875 20.484375 11.0625 
Q 25.484375 6.203125 34.421875 6.203125 
Q 39.59375 6.203125 44.453125 7.46875 
Q 49.3125 8.734375 54.109375 11.28125 
L 54.109375 2.78125 
Q 49.265625 0.734375 44.1875 -0.34375 
Q 39.109375 -1.421875 33.890625 -1.421875 
Q 20.796875 -1.421875 13.15625 6.1875 
Q 5.515625 13.8125 5.515625 26.8125 
Q 5.515625 40.234375 12.765625 48.109375 
Q 20.015625 56 32.328125 56 
Q 43.359375 56 49.78125 48.890625 
Q 56.203125 41.796875 56.203125 29.59375 
z
M 47.21875 32.234375 
Q 47.125 39.59375 43.09375 43.984375 
Q 39.0625 48.390625 32.421875 48.390625 
Q 24.90625 48.390625 20.390625 44.140625 
Q 15.875 39.890625 15.1875 32.171875 
z
" id="DejaVuSans-65"/>
     <path d="M 32.171875 -5.078125 
Q 28.375 -14.84375 24.75 -17.8125 
Q 21.140625 -20.796875 15.09375 -20.796875 
L 7.90625 -20.796875 
L 7.90625 -13.28125 
L 13.1875 -13.28125 
Q 16.890625 -13.28125 18.9375 -11.515625 
Q 21 -9.765625 23.484375 -3.21875 
L 25.09375 0.875 
L 2.984375 54.6875 
L 12.5 54.6875 
L 29.59375 11.921875 
L 46.6875 54.6875 
L 56.203125 54.6875 
z
" id="DejaVuSans-79"/>
    </defs>
    <g transform="translate(115.666875 35.472)scale(0.12 -0.12)">
     <use xlink:href="#DejaVuSans-50"/>
     <use x="60.302734" xlink:href="#DejaVuSans-6c"/>
     <use x="88.085938" xlink:href="#DejaVuSans-6f"/>
     <use x="149.267578" xlink:href="#DejaVuSans-74"/>
     <use x="188.476562" xlink:href="#DejaVuSans-20"/>
     <use x="220.263672" xlink:href="#DejaVuSans-6f"/>
     <use x="281.445312" xlink:href="#DejaVuSans-66"/>
     <use x="316.650391" xlink:href="#DejaVuSans-20"/>
     <use x="348.4375" xlink:href="#DejaVuSans-54"/>
     <use x="409.302734" xlink:href="#DejaVuSans-72"/>
     <use x="450.416016" xlink:href="#DejaVuSans-61"/>
     <use x="511.695312" xlink:href="#DejaVuSans-69"/>
     <use x="539.478516" xlink:href="#DejaVuSans-6e"/>
     <use x="602.857422" xlink:href="#DejaVuSans-20"/>
     <use x="634.644531" xlink:href="#DejaVuSans-44"/>
     <use x="711.646484" xlink:href="#DejaVuSans-61"/>
     <use x="772.925781" xlink:href="#DejaVuSans-74"/>
     <use x="812.134766" xlink:href="#DejaVuSans-61"/>
     <use x="873.414062" xlink:href="#DejaVuSans-20"/>
     <use x="905.201172" xlink:href="#DejaVuSans-76"/>
     <use x="964.380859" xlink:href="#DejaVuSans-73"/>
     <use x="1016.480469" xlink:href="#DejaVuSans-20"/>
     <use x="1048.267578" xlink:href="#DejaVuSans-4d"/>
     <use x="1134.546875" xlink:href="#DejaVuSans-43"/>
     <use x="1204.371094" xlink:href="#DejaVuSans-4d"/>
     <use x="1290.650391" xlink:href="#DejaVuSans-43"/>
     <use x="1360.474609" xlink:href="#DejaVuSans-20"/>
     <use x="1392.261719" xlink:href="#DejaVuSans-55"/>
     <use x="1465.455078" xlink:href="#DejaVuSans-6e"/>
     <use x="1528.833984" xlink:href="#DejaVuSans-63"/>
     <use x="1583.814453" xlink:href="#DejaVuSans-65"/>
     <use x="1645.337891" xlink:href="#DejaVuSans-72"/>
     <use x="1686.451172" xlink:href="#DejaVuSans-74"/>
     <use x="1725.660156" xlink:href="#DejaVuSans-61"/>
     <use x="1786.939453" xlink:href="#DejaVuSans-69"/>
     <use x="1814.722656" xlink:href="#DejaVuSans-6e"/>
     <use x="1878.101562" xlink:href="#DejaVuSans-74"/>
     <use x="1917.310547" xlink:href="#DejaVuSans-79"/>
     <use x="1976.490234" xlink:href="#DejaVuSans-20"/>
    </g>
   </g>
   <g id="legend_1">
    <g id="patch_7">
     <path d="M 293.8075 78.82825 
L 407.72 78.82825 
Q 409.72 78.82825 409.72 76.82825 
L 409.72 48.472 
Q 409.72 46.472 407.72 46.472 
L 293.8075 46.472 
Q 291.8075 46.472 291.8075 48.472 
L 291.8075 76.82825 
Q 291.8075 78.82825 293.8075 78.82825 
z
" style="fill:#ffffff;opacity:0.8;stroke:#cccccc;stroke-linejoin:miter;"/>
    </g>
    <g id="line2d_15">
     <path d="M 295.8075 54.570437 
L 315.8075 54.570437 
" style="fill:none;stroke:#1f77b4;stroke-linecap:square;stroke-width:1.5;"/>
    </g>
    <g id="line2d_16"/>
    <g id="text_14">
     <!-- actual -->
     <defs>
      <path d="M 8.5 21.578125 
L 8.5 54.6875 
L 17.484375 54.6875 
L 17.484375 21.921875 
Q 17.484375 14.15625 20.5 10.265625 
Q 23.53125 6.390625 29.59375 6.390625 
Q 36.859375 6.390625 41.078125 11.03125 
Q 45.3125 15.671875 45.3125 23.6875 
L 45.3125 54.6875 
L 54.296875 54.6875 
L 54.296875 0 
L 45.3125 0 
L 45.3125 8.40625 
Q 42.046875 3.421875 37.71875 1 
Q 33.40625 -1.421875 27.6875 -1.421875 
Q 18.265625 -1.421875 13.375 4.4375 
Q 8.5 10.296875 8.5 21.578125 
z
M 31.109375 56 
z
" id="DejaVuSans-75"/>
     </defs>
     <g transform="translate(323.8075 58.070437)scale(0.1 -0.1)">
      <use xlink:href="#DejaVuSans-61"/>
      <use x="61.279297" xlink:href="#DejaVuSans-63"/>
      <use x="116.259766" xlink:href="#DejaVuSans-74"/>
      <use x="155.46875" xlink:href="#DejaVuSans-75"/>
      <use x="218.847656" xlink:href="#DejaVuSans-61"/>
      <use x="280.126953" xlink:href="#DejaVuSans-6c"/>
     </g>
    </g>
    <g id="line2d_17">
     <path d="M 295.8075 69.248562 
L 315.8075 69.248562 
" style="fill:none;stroke:#ff7f0e;stroke-linecap:square;stroke-width:1.5;"/>
    </g>
    <g id="line2d_18"/>
    <g id="text_15">
     <!-- predicted (train) -->
     <defs>
      <path d="M 18.109375 8.203125 
L 18.109375 -20.796875 
L 9.078125 -20.796875 
L 9.078125 54.6875 
L 18.109375 54.6875 
L 18.109375 46.390625 
Q 20.953125 51.265625 25.265625 53.625 
Q 29.59375 56 35.59375 56 
Q 45.5625 56 51.78125 48.09375 
Q 58.015625 40.1875 58.015625 27.296875 
Q 58.015625 14.40625 51.78125 6.484375 
Q 45.5625 -1.421875 35.59375 -1.421875 
Q 29.59375 -1.421875 25.265625 0.953125 
Q 20.953125 3.328125 18.109375 8.203125 
z
M 48.6875 27.296875 
Q 48.6875 37.203125 44.609375 42.84375 
Q 40.53125 48.484375 33.40625 48.484375 
Q 26.265625 48.484375 22.1875 42.84375 
Q 18.109375 37.203125 18.109375 27.296875 
Q 18.109375 17.390625 22.1875 11.75 
Q 26.265625 6.109375 33.40625 6.109375 
Q 40.53125 6.109375 44.609375 11.75 
Q 48.6875 17.390625 48.6875 27.296875 
z
" id="DejaVuSans-70"/>
      <path d="M 45.40625 46.390625 
L 45.40625 75.984375 
L 54.390625 75.984375 
L 54.390625 0 
L 45.40625 0 
L 45.40625 8.203125 
Q 42.578125 3.328125 38.25 0.953125 
Q 33.9375 -1.421875 27.875 -1.421875 
Q 17.96875 -1.421875 11.734375 6.484375 
Q 5.515625 14.40625 5.515625 27.296875 
Q 5.515625 40.1875 11.734375 48.09375 
Q 17.96875 56 27.875 56 
Q 33.9375 56 38.25 53.625 
Q 42.578125 51.265625 45.40625 46.390625 
z
M 14.796875 27.296875 
Q 14.796875 17.390625 18.875 11.75 
Q 22.953125 6.109375 30.078125 6.109375 
Q 37.203125 6.109375 41.296875 11.75 
Q 45.40625 17.390625 45.40625 27.296875 
Q 45.40625 37.203125 41.296875 42.84375 
Q 37.203125 48.484375 30.078125 48.484375 
Q 22.953125 48.484375 18.875 42.84375 
Q 14.796875 37.203125 14.796875 27.296875 
z
" id="DejaVuSans-64"/>
      <path d="M 31 75.875 
Q 24.46875 64.65625 21.28125 53.65625 
Q 18.109375 42.671875 18.109375 31.390625 
Q 18.109375 20.125 21.3125 9.0625 
Q 24.515625 -2 31 -13.1875 
L 23.1875 -13.1875 
Q 15.875 -1.703125 12.234375 9.375 
Q 8.59375 20.453125 8.59375 31.390625 
Q 8.59375 42.28125 12.203125 53.3125 
Q 15.828125 64.359375 23.1875 75.875 
z
" id="DejaVuSans-28"/>
      <path d="M 8.015625 75.875 
L 15.828125 75.875 
Q 23.140625 64.359375 26.78125 53.3125 
Q 30.421875 42.28125 30.421875 31.390625 
Q 30.421875 20.453125 26.78125 9.375 
Q 23.140625 -1.703125 15.828125 -13.1875 
L 8.015625 -13.1875 
Q 14.5 -2 17.703125 9.0625 
Q 20.90625 20.125 20.90625 31.390625 
Q 20.90625 42.671875 17.703125 53.65625 
Q 14.5 64.65625 8.015625 75.875 
z
" id="DejaVuSans-29"/>
     </defs>
     <g transform="translate(323.8075 72.748562)scale(0.1 -0.1)">
      <use xlink:href="#DejaVuSans-70"/>
      <use x="63.476562" xlink:href="#DejaVuSans-72"/>
      <use x="104.558594" xlink:href="#DejaVuSans-65"/>
      <use x="166.082031" xlink:href="#DejaVuSans-64"/>
      <use x="229.558594" xlink:href="#DejaVuSans-69"/>
      <use x="257.341797" xlink:href="#DejaVuSans-63"/>
      <use x="312.322266" xlink:href="#DejaVuSans-74"/>
      <use x="351.53125" xlink:href="#DejaVuSans-65"/>
      <use x="413.054688" xlink:href="#DejaVuSans-64"/>
      <use x="476.53125" xlink:href="#DejaVuSans-20"/>
      <use x="508.318359" xlink:href="#DejaVuSans-28"/>
      <use x="547.332031" xlink:href="#DejaVuSans-74"/>
      <use x="586.541016" xlink:href="#DejaVuSans-72"/>
      <use x="627.654297" xlink:href="#DejaVuSans-61"/>
      <use x="688.933594" xlink:href="#DejaVuSans-69"/>
      <use x="716.716797" xlink:href="#DejaVuSans-6e"/>
      <use x="780.095703" xlink:href="#DejaVuSans-29"/>
     </g>
    </g>
   </g>
  </g>
 </g>
 <defs>
  <clipPath id="pc4d0f06205">
   <rect height="266.112" width="357.12" x="57.6" y="41.472"/>
  </clipPath>
 </defs>
</svg>
